HIERARCHY
ROOT Root
{
OFFSET 0.000000 0.000000 0.000000
  CHANNELS 6 Xposition Yposition Zposition Zrotation Yrotation Xrotation
 JOINT Hips
 {
   OFFSET 3.330553 101.491058 0.620727
   CHANNELS 6 Xposition Yposition Zposition Zrotation Yrotation Xrotation
  JOINT Spine1
  {
    OFFSET 5.185611 0.480941 0.025949
    CHANNELS 3 Zrotation Yrotation Xrotation
   JOINT Spine2
   {
     OFFSET 7.290425 -0.000001 -0.000000
     CHANNELS 3 Zrotation Yrotation Xrotation
    JOINT Chest
    {
      OFFSET 7.480175 0.000001 -0.000000
      CHANNELS 3 Zrotation Yrotation Xrotation
     JOINT Neck1
     {
       OFFSET 27.156862 -0.581946 -0.197435
       CHANNELS 3 Zrotation Yrotation Xrotation
      JOINT Neck2
      {
        OFFSET 8.200202 -0.000001 -0.000000
        CHANNELS 3 Zrotation Yrotation Xrotation
       JOINT Head
       {
         OFFSET 6.850518 -0.000002 0.000000
         CHANNELS 3 Zrotation Yrotation Xrotation
        JOINT HeadEnd
        {
          OFFSET 15.974357 0.326172 -0.002222
          CHANNELS 3 Zrotation Yrotation Xrotation
        }
        JOINT Jaw
        {
          OFFSET 0.170673 3.264252 -0.001817
          CHANNELS 3 Zrotation Yrotation Xrotation
        }
        JOINT LeftEye
        {
          OFFSET 4.805113 8.357908 3.194319
          CHANNELS 3 Zrotation Yrotation Xrotation
        }
        JOINT RightEye
        {
          OFFSET 4.809319 8.371241 -3.181319
          CHANNELS 3 Zrotation Yrotation Xrotation
        }
       }
      }
     }
     JOINT LeftShoulder
     {
       OFFSET 23.348534 5.253791 1.660146
       CHANNELS 3 Zrotation Yrotation Xrotation
      JOINT LeftArm
      {
        OFFSET 19.279833 -0.000006 -0.000017
        CHANNELS 3 Zrotation Yrotation Xrotation
       JOINT LeftForeArm
       {
         OFFSET 23.427656 -0.000003 -0.000004
         CHANNELS 3 Zrotation Yrotation Xrotation
        JOINT LeftHand
        {
          OFFSET 23.191952 -0.000008 -0.000006
          CHANNELS 3 Zrotation Yrotation Xrotation
         JOINT LeftHandThumb1
         {
           OFFSET 1.972496 3.212433 0.805939
           CHANNELS 3 Zrotation Yrotation Xrotation
          JOINT LeftHandThumb2
          {
            OFFSET 4.626032 -0.000004 -0.000004
            CHANNELS 3 Zrotation Yrotation Xrotation
           JOINT LeftHandThumb3
           {
             OFFSET 2.696718 0.000000 0.000007
             CHANNELS 3 Zrotation Yrotation Xrotation
            JOINT LeftHandThumbEnd
            {
              OFFSET 3.104518 0.000004 0.000000
              CHANNELS 3 Zrotation Yrotation Xrotation
            }
           }
          }
         }
         JOINT LeftHandIndex1
         {
           OFFSET 3.038124 2.270145 0.102100
           CHANNELS 3 Zrotation Yrotation Xrotation
          JOINT LeftHandIndex2
          {
            OFFSET 6.445965 0.000000 0.000008
            CHANNELS 3 Zrotation Yrotation Xrotation
           JOINT LeftHandIndex3
           {
             OFFSET 3.494659 0.000000 0.000000
             CHANNELS 3 Zrotation Yrotation Xrotation
            JOINT LeftHandIndex4
            {
              OFFSET 2.150097 0.000000 -0.000004
              CHANNELS 3 Zrotation Yrotation Xrotation
             JOINT LeftHandIndexEnd
             {
               OFFSET 2.558216 0.000003 0.000000
               CHANNELS 3 Zrotation Yrotation Xrotation
             }
            }
           }
          }
         }
         JOINT LeftHandMiddle1
         {
           OFFSET 2.998920 0.890102 -0.414703
           CHANNELS 3 Zrotation Yrotation Xrotation
          JOINT LeftHandMiddle2
          {
            OFFSET 6.251595 0.000002 0.000000
            CHANNELS 3 Zrotation Yrotation Xrotation
           JOINT LeftHandMiddle3
           {
             OFFSET 4.182251 -0.000004 0.000008
             CHANNELS 3 Zrotation Yrotation Xrotation
            JOINT LeftHandMiddle4
            {
              OFFSET 2.848400 -0.000001 0.000004
              CHANNELS 3 Zrotation Yrotation Xrotation
             JOINT LeftHandMiddleEnd
             {
               OFFSET 2.274048 0.000002 0.000000
               CHANNELS 3 Zrotation Yrotation Xrotation
             }
            }
           }
          }
         }
         JOINT LeftHandRing1
         {
           OFFSET 2.712849 -0.383375 0.136517
           CHANNELS 3 Zrotation Yrotation Xrotation
          JOINT LeftHandRing2
          {
            OFFSET 5.960812 -0.000001 -0.000008
            CHANNELS 3 Zrotation Yrotation Xrotation
           JOINT LeftHandRing3
           {
             OFFSET 4.155865 0.000000 0.000004
             CHANNELS 3 Zrotation Yrotation Xrotation
            JOINT LeftHandRing4
            {
              OFFSET 2.507320 0.000000 0.000000
              CHANNELS 3 Zrotation Yrotation Xrotation
             JOINT LeftHandRingEnd
             {
               OFFSET 1.865696 0.000000 0.000000
               CHANNELS 3 Zrotation Yrotation Xrotation
             }
            }
           }
          }
         }
         JOINT LeftHandPinky1
         {
           OFFSET 2.675140 -1.653357 0.574287
           CHANNELS 3 Zrotation Yrotation Xrotation
          JOINT LeftHandPinky2
          {
            OFFSET 5.257679 0.000002 0.000000
            CHANNELS 3 Zrotation Yrotation Xrotation
           JOINT LeftHandPinky3
           {
             OFFSET 3.113903 0.000001 -0.000004
             CHANNELS 3 Zrotation Yrotation Xrotation
            JOINT LeftHandPinky4
            {
              OFFSET 1.752155 0.000000 0.000000
              CHANNELS 3 Zrotation Yrotation Xrotation
             JOINT LeftHandPinkyEnd
             {
               OFFSET 1.962643 -0.000001 -0.000004
               CHANNELS 3 Zrotation Yrotation Xrotation
             }
            }
           }
          }
         }
        }
       }
      }
     }
     JOINT RightShoulder
     {
       OFFSET 23.301741 5.440480 -1.424998
       CHANNELS 3 Zrotation Yrotation Xrotation
      JOINT RightArm
      {
        OFFSET -19.306400 0.000001 -0.000006
        CHANNELS 3 Zrotation Yrotation Xrotation
       JOINT RightForeArm
       {
         OFFSET -23.456160 0.000001 -0.000006
         CHANNELS 3 Zrotation Yrotation Xrotation
        JOINT RightHand
        {
          OFFSET -23.199221 0.000003 0.000002
          CHANNELS 3 Zrotation Yrotation Xrotation
         JOINT RightHandThumb1
         {
           OFFSET -1.972160 -3.212732 -0.806084
           CHANNELS 3 Zrotation Yrotation Xrotation
          JOINT RightHandThumb2
          {
            OFFSET -4.626308 0.000000 0.000007
            CHANNELS 3 Zrotation Yrotation Xrotation
           JOINT RightHandThumb3
           {
             OFFSET -2.696688 0.000000 -0.000000
             CHANNELS 3 Zrotation Yrotation Xrotation
            JOINT RightHandThumbEnd
            {
              OFFSET -3.105056 -0.000004 -0.000003
              CHANNELS 3 Zrotation Yrotation Xrotation
            }
           }
          }
         }
         JOINT RightHandIndex1
         {
           OFFSET -3.038502 -2.269806 -0.102615
           CHANNELS 3 Zrotation Yrotation Xrotation
          JOINT RightHandIndex2
          {
            OFFSET -6.445782 -0.000004 0.000008
            CHANNELS 3 Zrotation Yrotation Xrotation
           JOINT RightHandIndex3
           {
             OFFSET -3.493858 0.000000 -0.000011
             CHANNELS 3 Zrotation Yrotation Xrotation
            JOINT RightHandIndex4
            {
              OFFSET -2.149529 -0.000002 -0.000004
              CHANNELS 3 Zrotation Yrotation Xrotation
             JOINT RightHandIndexEnd
             {
               OFFSET -2.558128 -0.000001 0.000000
               CHANNELS 3 Zrotation Yrotation Xrotation
             }
            }
           }
          }
         }
         JOINT RightHandMiddle1
         {
           OFFSET -2.998993 -0.889952 0.414894
           CHANNELS 3 Zrotation Yrotation Xrotation
          JOINT RightHandMiddle2
          {
            OFFSET -6.251987 -0.000003 -0.000008
            CHANNELS 3 Zrotation Yrotation Xrotation
           JOINT RightHandMiddle3
           {
             OFFSET -4.181046 -0.000003 0.000004
             CHANNELS 3 Zrotation Yrotation Xrotation
            JOINT RightHandMiddle4
            {
              OFFSET -2.847336 0.000002 0.000000
              CHANNELS 3 Zrotation Yrotation Xrotation
             JOINT RightHandMiddleEnd
             {
               OFFSET -2.274467 -0.000001 0.000008
               CHANNELS 3 Zrotation Yrotation Xrotation
             }
            }
           }
          }
         }
         JOINT RightHandRing1
         {
           OFFSET -2.712662 0.383348 -0.135979
           CHANNELS 3 Zrotation Yrotation Xrotation
          JOINT RightHandRing2
          {
            OFFSET -5.961094 -0.000002 0.000004
            CHANNELS 3 Zrotation Yrotation Xrotation
           JOINT RightHandRing3
           {
             OFFSET -4.155010 0.000001 0.000000
             CHANNELS 3 Zrotation Yrotation Xrotation
            JOINT RightHandRing4
            {
              OFFSET -2.506302 -0.000000 -0.000008
              CHANNELS 3 Zrotation Yrotation Xrotation
             JOINT RightHandRingEnd
             {
               OFFSET -1.866306 0.000002 0.000000
               CHANNELS 3 Zrotation Yrotation Xrotation
             }
            }
           }
          }
         }
         JOINT RightHandPinky1
         {
           OFFSET -2.674698 1.653210 -0.574352
           CHANNELS 3 Zrotation Yrotation Xrotation
          JOINT RightHandPinky2
          {
            OFFSET -5.257671 -0.000001 0.000004
            CHANNELS 3 Zrotation Yrotation Xrotation
           JOINT RightHandPinky3
           {
             OFFSET -3.113091 -0.000001 0.000000
             CHANNELS 3 Zrotation Yrotation Xrotation
            JOINT RightHandPinky4
            {
              OFFSET -1.752007 0.000002 -0.000008
              CHANNELS 3 Zrotation Yrotation Xrotation
             JOINT RightHandPinkyEnd
             {
               OFFSET -1.963306 0.000000 0.000004
               CHANNELS 3 Zrotation Yrotation Xrotation
             }
            }
           }
          }
         }
        }
       }
      }
     }
    }
   }
  }
  JOINT LeftLeg
  {
    OFFSET -8.889949 2.513977 10.026885
    CHANNELS 3 Zrotation Yrotation Xrotation
   JOINT LeftShin
   {
     OFFSET 43.208843 0.000003 0.000000
     CHANNELS 3 Zrotation Yrotation Xrotation
    JOINT LeftFoot
    {
      OFFSET 45.578201 -0.000003 -0.000004
      CHANNELS 3 Zrotation Yrotation Xrotation
     JOINT LeftToeBase
     {
       OFFSET 16.212999 0.000000 0.000000
       CHANNELS 3 Zrotation Yrotation Xrotation
      JOINT LeftToeEnd
      {
        OFFSET 7.750711 -0.135288 0.000000
        CHANNELS 3 Zrotation Yrotation Xrotation
      }
     }
    }
   }
  }
  JOINT RightLeg
  {
    OFFSET -8.806253 2.771246 -9.963077
    CHANNELS 3 Zrotation Yrotation Xrotation
   JOINT RightShin
   {
     OFFSET -43.239971 -0.000000 0.000001
     CHANNELS 3 Zrotation Yrotation Xrotation
    JOINT RightFoot
    {
      OFFSET -45.578156 -0.000000 -0.000003
      CHANNELS 3 Zrotation Yrotation Xrotation
     JOINT RightToeBase
     {
       OFFSET -16.208389 0.000003 0.000002
       CHANNELS 3 Zrotation Yrotation Xrotation
      JOINT RightToeEnd
      {
        OFFSET -7.754828 0.135361 0.000002
        CHANNELS 3 Zrotation Yrotation Xrotation
      }
     }
    }
   }
  }
 }
}
MOTION
Frames: 5
Frame Time: 0.008333
0.000000 0.000000 0.000000 0.000000 0.000000 0.000000 2.863894 99.693459 -376.413940 92.863792 -1.017530 0.779523 4.850008 -1.190647 0.204407 1.950909 4.389771 -6.679006 1.144544 -0.758590 -2.456000 7.975648 3.698884 0.361554 -8.712058 4.373660 -2.734703 -20.467919 -3.012337 13.041249 0.000000 0.000000 0.000000 0.000000 0.000000 0.000000 0.000000 0.000000 0.000000 0.000000 0.000000 0.000000 -89.912260 -68.278309 91.174589 82.634725 -80.009847 -27.942422 15.656844 -0.221008 -0.260215 1.396686 7.625736 -2.106103 28.126116 -25.557656 50.290953 -17.715232 -16.513267 34.776931 0.000000 -25.538733 0.000000 0.000000 0.000000 0.000000 -0.658380 -0.225259 -3.112784 -4.579095 -16.242734 -0.789354 0.000000 -19.779147 0.000000 -7.063425 -18.085624 -4.518332 0.000000 0.000000 0.000000 -10.653335 -2.302934 -2.159360 13.699383 -23.587298 -1.405480 0.000000 -27.504436 0.000000 -3.675020 -23.768379 -3.876290 0.000000 0.000000 0.000000 -14.894677 -5.059497 -0.151217 21.162563 -21.035633 -3.116382 0.000000 -32.748650 0.000000 -0.399775 -19.648636 2.173004 0.000000 0.000000 0.000000 -18.446696 -16.045550 -0.883540 25.199499 -16.335262 0.966872 0.000000 -24.120000 0.000000 -4.054054 -19.395545 -5.878699 0.000000 0.000000 0.000000 64.344151 -62.524880 109.505250 12.494218 -65.521548 14.629286 14.931709 -0.279824 -0.361372 0.193904 -2.141788 -19.623380 28.126116 -25.557656 50.290953 -17.715232 -16.513267 34.776931 0.000000 -25.538733 0.000000 0.000000 0.000000 0.000000 -0.658380 -0.225259 -3.112784 -4.579095 -16.242734 -0.789354 0.000000 -19.779147 0.000000 -7.063425 -18.085624 -4.518332 0.000000 0.000000 0.000000 -10.653335 -2.302934 -2.159360 13.699383 -23.587298 -1.405480 0.000000 -27.504436 0.000000 -3.675020 -23.768379 -3.876290 0.000000 0.000000 0.000000 -14.894677 -5.059497 -0.151217 21.162563 -21.035633 -3.116382 0.000000 -32.748650 0.000000 -0.399775 -19.648636 2.173004 0.000000 0.000000 0.000000 -18.446696 -16.045550 -0.883540 25.199499 -16.335262 0.966872 0.000000 -24.120000 0.000000 -4.054054 -19.395545 -5.878699 0.000000 0.000000 0.000000 -171.476954 13.231717 0.395436 10.526242 0.000000 0.000000 -95.899527 9.075330 -13.438388 -6.909325 0.026977 5.559039 0.000000 0.000000 0.000000 -15.149579 7.870755 4.050219 23.373514 0.000065 0.000000 -92.509954 -9.753319 3.945853 -0.596732 -0.087515 5.568269 0.000000 0.000000 0.000000
0.000000 0.000000 0.000000 0.000000 0.000000 0.000000 2.845235 99.633987 -376.993011 93.009945 -1.078319 0.966052 4.653360 -1.321493 0.164316 1.924019 4.622780 -6.896841 1.159268 -0.719413 -2.454400 7.958408 3.759169 0.334100 -8.703884 4.441840 -2.769362 -20.445525 -3.013648 13.138246 0.000000 0.000000 0.000000 0.000000 0.000000 0.000000 0.000000 0.000000 0.000000 0.000000 0.000000 0.000000 -89.588995 -68.399299 90.841884 83.183158 -79.967185 -28.400658 15.541147 -0.219491 -0.258640 1.291529 8.005876 -2.441170 28.126116 -25.557656 50.290953 -17.715232 -16.513267 34.776931 0.000000 -25.538733 0.000000 0.000000 0.000000 0.000000 -0.658380 -0.225259 -3.112784 -4.579095 -16.242734 -0.789354 0.000000 -19.779147 0.000000 -7.063425 -18.085624 -4.518332 0.000000 0.000000 0.000000 -10.653335 -2.302934 -2.159360 13.699383 -23.587298 -1.405480 0.000000 -27.504436 0.000000 -3.675020 -23.768379 -3.876290 0.000000 0.000000 0.000000 -14.894677 -5.059497 -0.151217 21.162563 -21.035633 -3.116382 0.000000 -32.748650 0.000000 -0.399775 -19.648636 2.173004 0.000000 0.000000 0.000000 -18.446696 -16.045550 -0.883540 25.199499 -16.335262 0.966872 0.000000 -24.120000 0.000000 -4.054054 -19.395545 -5.878699 0.000000 0.000000 0.000000 64.180788 -62.288229 109.666513 11.880182 -65.342371 15.127793 14.955135 -0.280448 -0.362069 0.223399 -2.323187 -19.487798 28.126116 -25.557656 50.290953 -17.715232 -16.513267 34.776931 0.000000 -25.538733 0.000000 0.000000 0.000000 0.000000 -0.658380 -0.225259 -3.112784 -4.579095 -16.242734 -0.789354 0.000000 -19.779147 0.000000 -7.063425 -18.085624 -4.518332 0.000000 0.000000 0.000000 -10.653335 -2.302934 -2.159360 13.699383 -23.587298 -1.405480 0.000000 -27.504436 0.000000 -3.675020 -23.768379 -3.876290 0.000000 0.000000 0.000000 -14.894677 -5.059497 -0.151217 21.162563 -21.035633 -3.116382 0.000000 -32.748650 0.000000 -0.399775 -19.648636 2.173004 0.000000 0.000000 0.000000 -18.446696 -16.045550 -0.883540 25.199499 -16.335262 0.966872 0.000000 -24.120000 0.000000 -4.054054 -19.395545 -5.878699 0.000000 0.000000 0.000000 -171.156455 13.850197 0.814156 8.907257 0.000000 0.000000 -95.370658 9.182340 -13.754942 -6.911322 0.027002 5.559022 0.000000 0.000000 0.000000 -15.292343 8.345569 4.287866 23.333919 0.000000 0.000000 -92.506139 -10.272257 4.235617 -0.620830 -0.087085 5.568263 0.000000 0.000000 0.000000
0.000000 0.000000 0.000000 0.000000 0.000000 0.000000 2.831590 99.578506 -377.568909 93.160641 -1.140512 1.216160 4.476119 -1.482780 0.120614 1.886940 4.883086 -7.147224 1.170219 -0.678186 -2.455627 7.937289 3.821278 0.304359 -8.699642 4.506845 -2.805769 -20.436825 -3.014958 13.227855 0.000000 0.000000 0.000000 0.000000 0.000000 0.000000 0.000000 0.000000 0.000000 0.000000 0.000000 0.000000 -89.386287 -68.545106 90.628888 83.541306 -79.912079 -28.810880 15.411286 -0.218188 -0.256842 1.259301 8.325625 -2.821124 28.126116 -25.557656 50.290953 -17.715232 -16.513267 34.776931 0.000000 -25.538733 0.000000 0.000000 0.000000 0.000000 -0.658380 -0.225259 -3.112784 -4.579095 -16.242734 -0.789354 0.000000 -19.779147 0.000000 -7.063425 -18.085624 -4.518332 0.000000 0.000000 0.000000 -10.653335 -2.302934 -2.159360 13.699383 -23.587298 -1.405480 0.000000 -27.504436 0.000000 -3.675020 -23.768379 -3.876290 0.000000 0.000000 0.000000 -14.894677 -5.059497 -0.151217 21.162563 -21.035633 -3.116382 0.000000 -32.748650 0.000000 -0.399775 -19.648636 2.173004 0.000000 0.000000 0.000000 -18.446696 -16.045550 -0.883540 25.199499 -16.335262 0.966872 0.000000 -24.120000 0.000000 -4.054054 -19.395545 -5.878699 0.000000 0.000000 0.000000 63.970318 -62.026942 109.880442 11.237499 -65.136812 15.608861 14.983023 -0.280971 -0.362750 0.225477 -2.473896 -19.303794 28.126116 -25.557656 50.290953 -17.715232 -16.513267 34.776931 0.000000 -25.538733 0.000000 0.000000 0.000000 0.000000 -0.658380 -0.225259 -3.112784 -4.579095 -16.242734 -0.789354 0.000000 -19.779147 0.000000 -7.063425 -18.085624 -4.518332 0.000000 0.000000 0.000000 -10.653335 -2.302934 -2.159360 13.699383 -23.587298 -1.405480 0.000000 -27.504436 0.000000 -3.675020 -23.768379 -3.876290 0.000000 0.000000 0.000000 -14.894677 -5.059497 -0.151217 21.162563 -21.035633 -3.116382 0.000000 -32.748650 0.000000 -0.399775 -19.648636 2.173004 0.000000 0.000000 0.000000 -18.446696 -16.045550 -0.883540 25.199499 -16.335262 0.966872 0.000000 -24.120000 0.000000 -4.054054 -19.395545 -5.878699 0.000000 0.000000 0.000000 -170.900435 14.392536 1.118352 7.429486 0.000000 0.000000 -94.850691 9.434009 -14.223896 -6.871923 0.026326 5.559117 0.000000 0.000000 0.000000 -15.436845 8.787715 4.381163 23.260754 -0.000079 0.000000 -92.491004 -10.706245 4.519783 -0.644530 -0.086671 5.568257 0.000000 0.000000 0.000000
0.000000 0.000000 0.000000 0.000000 0.000000 0.000000 2.822085 99.523460 -378.147491 93.318091 -1.209185 1.521830 4.309838 -1.665685 0.074294 1.842632 5.162456 -7.424752 1.178622 -0.634842 -2.459197 7.912446 3.887346 0.271332 -8.699382 4.577873 -2.845652 -20.438093 -3.019654 13.314196 0.000000 0.000000 0.000000 0.000000 0.000000 0.000000 0.000000 0.000000 0.000000 0.000000 0.000000 0.000000 -89.252858 -68.711279 90.483337 83.833393 -79.849838 -29.285078 15.255877 -0.216539 -0.254676 1.291619 8.604680 -3.258174 28.126116 -25.557656 50.290953 -17.715232 -16.513267 34.776931 0.000000 -25.538733 0.000000 0.000000 0.000000 0.000000 -0.658380 -0.225259 -3.112784 -4.579095 -16.242734 -0.789354 0.000000 -19.779147 0.000000 -7.063425 -18.085624 -4.518332 0.000000 0.000000 0.000000 -10.653335 -2.302934 -2.159360 13.699383 -23.587298 -1.405480 0.000000 -27.504436 0.000000 -3.675020 -23.768379 -3.876290 0.000000 0.000000 0.000000 -14.894677 -5.059497 -0.151217 21.162563 -21.035633 -3.116382 0.000000 -32.748650 0.000000 -0.399775 -19.648636 2.173004 0.000000 0.000000 0.000000 -18.446696 -16.045550 -0.883540 25.199499 -16.335262 0.966872 0.000000 -24.120000 0.000000 -4.054054 -19.395545 -5.878699 0.000000 0.000000 0.000000 63.722430 -61.740929 110.136057 10.566762 -64.908627 16.082504 15.012342 -0.281412 -0.363495 0.202740 -2.603688 -19.080673 28.126116 -25.557656 50.290953 -17.715232 -16.513267 34.776931 0.000000 -25.538733 0.000000 0.000000 0.000000 0.000000 -0.658380 -0.225259 -3.112784 -4.579095 -16.242734 -0.789354 0.000000 -19.779147 0.000000 -7.063425 -18.085624 -4.518332 0.000000 0.000000 0.000000 -10.653335 -2.302934 -2.159360 13.699383 -23.587298 -1.405480 0.000000 -27.504436 0.000000 -3.675020 -23.768379 -3.876290 0.000000 0.000000 0.000000 -14.894677 -5.059497 -0.151217 21.162563 -21.035633 -3.116382 0.000000 -32.748650 0.000000 -0.399775 -19.648636 2.173004 0.000000 0.000000 0.000000 -18.446696 -16.045550 -0.883540 25.199499 -16.335262 0.966872 0.000000 -24.120000 0.000000 -4.054054 -19.395545 -5.878699 0.000000 0.000000 0.000000 -170.719480 14.854652 1.297553 6.080311 0.000000 0.000000 -94.324388 9.811630 -14.787917 -6.802846 0.025096 5.559254 0.000000 0.000000 0.000000 -15.589412 9.214540 4.382990 23.162120 0.000000 0.000000 -92.464962 -11.102351 4.798680 -0.669921 -0.086232 5.568249 0.000000 0.000000 0.000000
0.000000 0.000000 0.000000 0.000000 0.000000 0.000000 2.832947 99.467453 -378.744232 93.460078 -1.296887 1.880216 4.166836 -1.835971 0.027459 1.796862 5.433967 -7.714079 1.185438 -0.592592 -2.463854 7.886118 3.963997 0.231977 -8.697523 4.657404 -2.892285 -20.453651 -3.032614 13.385498 0.000000 0.000000 0.000000 0.000000 0.000000 0.000000 0.000000 0.000000 0.000000 0.000000 0.000000 0.000000 -89.121993 -68.900331 90.342477 84.191312 -79.774298 -29.901974 15.076717 -0.214693 -0.252121 1.340036 8.831317 -3.751965 28.126116 -25.557656 50.290953 -17.715232 -16.513267 34.776931 0.000000 -25.538733 0.000000 0.000000 0.000000 0.000000 -0.658380 -0.225259 -3.112784 -4.579095 -16.242734 -0.789354 0.000000 -19.779147 0.000000 -7.063425 -18.085624 -4.518332 0.000000 0.000000 0.000000 -10.653335 -2.302934 -2.159360 13.699383 -23.587298 -1.405480 0.000000 -27.504436 0.000000 -3.675020 -23.768379 -3.876290 0.000000 0.000000 0.000000 -14.894677 -5.059497 -0.151217 21.162563 -21.035633 -3.116382 0.000000 -32.748650 0.000000 -0.399775 -19.648636 2.173004 0.000000 0.000000 0.000000 -18.446696 -16.045550 -0.883540 25.199499 -16.335262 0.966872 0.000000 -24.120000 0.000000 -4.054054 -19.395545 -5.878699 0.000000 0.000000 0.000000 63.464352 -61.437728 110.404572 9.833969 -64.679780 16.569094 15.039819 -0.281731 -0.364169 0.167744 -2.701059 -18.873168 28.126116 -25.557656 50.290953 -17.715232 -16.513267 34.776931 0.000000 -25.538733 0.000000 0.000000 0.000000 0.000000 -0.658380 -0.225259 -3.112784 -4.579095 -16.242734 -0.789354 0.000000 -19.779147 0.000000 -7.063425 -18.085624 -4.518332 0.000000 0.000000 0.000000 -10.653335 -2.302934 -2.159360 13.699383 -23.587298 -1.405480 0.000000 -27.504436 0.000000 -3.675020 -23.768379 -3.876290 0.000000 0.000000 0.000000 -14.894677 -5.059497 -0.151217 21.162563 -21.035633 -3.116382 0.000000 -32.748650 0.000000 -0.399775 -19.648636 2.173004 0.000000 0.000000 0.000000 -18.446696 -16.045550 -0.883540 25.199499 -16.335262 0.966872 0.000000 -24.120000 0.000000 -4.054054 -19.395545 -5.878699 0.000000 0.000000 0.000000 -170.622127 15.213215 1.236281 4.944801 0.000000 0.000000 -93.815266 10.437714 -15.333834 -6.736848 0.023952 5.559400 0.000000 0.000000 0.000000 -15.720199 9.644594 4.315367 23.024330 0.000000 0.000000 -92.418607 -11.478487 5.070633 -0.680820 -0.086051 5.568247 0.000000 0.000000 0.000000
